<?xml version="1.0" standalone="no"?>
<!DOCTYPE svg PUBLIC "-//W3C//DTD SVG 20010904//EN"
 "http://www.w3.org/TR/2001/REC-SVG-20010904/DTD/svg10.dtd">
<svg version="1.0" xmlns="http://www.w3.org/2000/svg"
 width="132.000000pt" height="132.000000pt" viewBox="0 0 132.000000 132.000000"
 preserveAspectRatio="xMidYMid meet">
<metadata>
Created by potrace 1.14, written by Peter Selinger 2001-2017
</metadata>
<g transform="translate(0.000000,132.000000) scale(0.100000,-0.100000)"
fill="#000000" stroke="none">
<path d="M549 1223 c-259 -52 -452 -291 -452 -557 1 -211 113 -397 303 -503
138 -77 330 -85 485 -20 205 85 347 298 345 517 -1 121 -10 159 -58 260 -45
92 -149 200 -237 247 -116 61 -260 82 -386 56z m54 -402 l60 -125 62 124 61
125 52 1 c28 0 56 -2 60 -5 10 -7 144 -492 138 -499 -7 -6 -163 -5 -174 2 -5
3 -9 18 -10 33 0 15 -3 42 -6 58 -3 17 -10 68 -16 115 -7 47 -13 86 -14 87 -1
2 -15 -25 -30 -60 -15 -34 -37 -81 -48 -105 l-20 -43 -56 3 -57 3 -44 102
c-25 57 -46 101 -48 100 -3 -3 -25 -152 -37 -251 -3 -21 -7 -41 -10 -43 -7 -7
-167 -6 -173 1 -4 4 111 442 126 481 7 18 18 21 66 21 l58 0 60 -125z"/>
</g>
</svg>
